<svg xmlns="http://www.w3.org/2000/svg" xml:space="preserve" style="enable-background:new 0 0 591.9 229.9" viewBox="0 0 591.9 229.9">
  <path d="M7.3 119.7v31.1H.5v-31.1h6.8zm15.7 0 7.3 21.4h.1l6.9-21.4h9.6v31.1h-6.4v-22h-.1l-7.6 22h-5.3L19.8 129h-.1v21.8h-6.4v-31.1H23zm27.4 5.8v-5.7h25.4v5.7h-9.3v25.3h-6.8v-25.3h-9.3zm56.5-5.8 11.6 31.1h-7.1l-2.3-6.9H97.5l-2.4 6.9h-6.9l11.7-31.1h7zm.4 19.1-3.9-11.4h-.1l-4 11.4h8zm25.6-10.5v4.1h-4.5v11.1c0 1 .2 1.7.5 2.1.3.3 1 .5 2.1.5h1c.3 0 .6-.1.9-.1v4.8c-.5.1-1.1.1-1.7.2h-1.9c-1 0-1.9-.1-2.7-.2-.9-.1-1.6-.4-2.3-.8-.7-.4-1.2-.9-1.5-1.6-.4-.7-.6-1.6-.6-2.7v-13.3h-3.7v-4.1h3.7v-6.7h6.2v6.7h4.5zm9.4-8.6v31.1h-6.2v-31.1h6.2zm4.6 15.5c.1-1.4.4-2.7 1.1-3.6.6-1 1.4-1.7 2.4-2.3 1-.6 2.1-1 3.3-1.2 1.2-.2 2.5-.4 3.7-.4 1.1 0 2.3.1 3.4.2 1.2.2 2.2.5 3.2.9 1 .5 1.7 1.1 2.3 1.9.6.8.9 1.9.9 3.3v11.7c0 1 .1 2 .2 2.9.1.9.3 1.6.6 2.1h-6.3c-.1-.3-.2-.7-.3-1.1-.1-.4-.1-.7-.2-1.1-1 1-2.1 1.7-3.5 2.1-1.3.4-2.7.6-4.1.6-1.1 0-2.1-.1-3-.4-.9-.3-1.7-.7-2.4-1.2-.7-.6-1.2-1.2-1.6-2.1-.4-.8-.6-1.8-.6-3 0-1.3.2-2.3.7-3.2.4-.8 1-1.5 1.7-2s1.5-.9 2.4-1.1c.9-.2 1.8-.4 2.8-.6.9-.1 1.8-.3 2.7-.3.9-.1 1.7-.2 2.4-.4s1.2-.4 1.7-.8c.4-.3.6-.8.6-1.5s-.1-1.2-.3-1.6c-.2-.4-.5-.7-.9-.9-.4-.2-.8-.4-1.3-.4-.5-.1-1-.1-1.5-.1-1.2 0-2.2.3-2.9.8-.7.5-1.1 1.4-1.2 2.6h-6zm14.2 4.6c-.3.2-.6.4-1 .5-.4.1-.8.2-1.3.3-.5.1-.9.2-1.4.2-.5.1-1 .1-1.5.2s-.9.2-1.4.3c-.4.1-.8.3-1.2.6-.3.2-.6.6-.8.9-.2.4-.3.9-.3 1.4 0 .6.1 1 .3 1.4.2.4.5.7.8.9.3.2.8.4 1.2.5.5.1.9.1 1.4.1 1.2 0 2.2-.2 2.8-.6.7-.4 1.2-.9 1.5-1.5.3-.6.5-1.1.6-1.7.1-.6.1-1 .1-1.4v-2.1zm16.9-11.5v3.1h.1c.8-1.3 1.8-2.3 3-2.8 1.2-.6 2.5-.9 3.8-.9 1.7 0 3 .2 4.1.7 1.1.4 1.9 1.1 2.5 1.9.6.8 1 1.8 1.3 2.9.2 1.1.4 2.4.4 3.8v13.8H187v-12.7c0-1.9-.3-3.2-.9-4.2-.6-.9-1.6-1.4-3.1-1.4-1.7 0-2.9.5-3.7 1.5-.8 1-1.1 2.6-1.1 4.9v11.8H172v-22.5h6zm32.2 0v4.1h-4.5v11.1c0 1 .2 1.7.5 2.1.3.3 1 .5 2.1.5h1c.3 0 .6-.1.9-.1v4.8c-.5.1-1.1.1-1.7.2h-1.9c-1 0-1.9-.1-2.7-.2-.9-.1-1.6-.4-2.3-.8-.7-.4-1.2-.9-1.5-1.6-.4-.7-.6-1.6-.6-2.7v-13.3h-3.7v-4.1h3.7v-6.7h6.2v6.7h4.5zm3.2-3.5v-5.1h6.2v5.1h-6.2zm6.1 3.5v22.5h-6.2v-22.5h6.2zm20.7 30.4V148h-.1c-.7 1.2-1.7 2.1-3 2.6s-2.7.8-4 .8c-1 0-2.1-.2-3.2-.6-1.1-.4-2.1-1-3.1-2-.9-.9-1.7-2.1-2.3-3.6-.6-1.5-.9-3.3-.9-5.5 0-1.5.2-3 .6-4.5s1-2.7 1.9-3.8c.8-1.1 1.9-2 3.2-2.7 1.3-.7 2.7-1 4.5-1 1.4 0 2.7.3 3.9.8 1.2.5 2.2 1.4 2.9 2.7h.1v-2.9h5.9v30.4h-6.4zm-10.3-16.5c.2.9.5 1.6.9 2.3.4.7 1 1.2 1.7 1.6.7.4 1.5.6 2.5.6s1.9-.2 2.5-.6c.7-.4 1.2-.9 1.7-1.6.4-.7.7-1.4.9-2.3.2-.9.3-1.7.3-2.7 0-.9-.1-1.7-.3-2.6-.2-.9-.5-1.7-.9-2.3-.4-.7-.9-1.3-1.6-1.7-.7-.4-1.5-.7-2.5-.7s-1.9.2-2.6.6-1.3.9-1.7 1.6c-.4.7-.7 1.5-.9 2.3-.2.9-.3 1.7-.3 2.7 0 1.1.1 2 .3 2.8zm36.3 8.6v-3.1h-.1c-.8 1.3-1.8 2.2-3 2.8-1.2.6-2.5.9-3.8.9-1.7 0-3-.2-4.1-.7-1.1-.4-1.9-1.1-2.5-1.8-.6-.8-1-1.8-1.3-2.9-.2-1.1-.4-2.4-.4-3.8v-13.8h6.2V141c0 1.9.3 3.2.9 4.2.6.9 1.6 1.4 3.1 1.4 1.7 0 2.9-.5 3.7-1.5.8-1 1.1-2.6 1.1-4.9v-11.8h6.2v22.5h-6zm17.2-5.4c.9.9 2.3 1.3 4 1.3 1.2 0 2.3-.3 3.2-.9.9-.6 1.4-1.3 1.7-2h5.4c-.9 2.7-2.2 4.6-4 5.8-1.8 1.2-4 1.7-6.5 1.7-1.8 0-3.4-.3-4.8-.8-1.4-.6-2.6-1.4-3.6-2.4s-1.7-2.3-2.3-3.7c-.5-1.4-.8-3-.8-4.8 0-1.7.3-3.2.8-4.7.6-1.4 1.3-2.7 2.3-3.8 1-1.1 2.2-1.9 3.6-2.5s3-.9 4.7-.9c1.9 0 3.6.4 5 1.1 1.4.7 2.6 1.7 3.5 3 .9 1.2 1.6 2.7 2 4.3.4 1.6.5 3.3.4 5h-16.2c.1 2 .7 3.4 1.6 4.3zm7-11.8c-.7-.8-1.9-1.2-3.4-1.2-1 0-1.8.2-2.5.5s-1.2.7-1.6 1.2c-.4.5-.7 1-.8 1.6-.2.6-.3 1-.3 1.5h10c-.2-1.6-.7-2.8-1.4-3.6z"/>
  <path d="M105.3.1.5 104.9V.1zm104.9 0v104.8H105.3V.1l52.4 52.4zm52.4 104.8V52.5h-52.4L262.6.1h104.8z" style="fill:#00b8de"/>
  <path d="m492.8 16.4.6-.6c.4-.4.7-.8 1.2-1.2.1-.1.3-.2.4-.3 0 0 0-.1.1-.1-.2.1-.3.2-.5.3 0 0-.1 0 0-.1s.3-.2.4-.3V14c-.5-.1-.8.2-1.1.5h-.2c-.5.2-.9.6-1.4.8v-.1c-.2.1-.4.2-.6.2-.3.1-.6 0-.9 0-.4 0-.9.1-1.3.2-.2.1-.4.1-.6.3l-.1.1c-.1.1-.1.2-.2.2-.2.1-.4.3-.6.5h-.1c-.2.2-.4.4-.6.5h-.1c0-.1.1-.1.1-.1l.1-.2c.1-.1.1-.1.1-.2h-.1c.2-.2.4-.3.6-.4 0 0-.1 0 0 0 0 0 0-.1.1-.1l-.2.1c-.1.1-.1.2-.3.2h-.1v-.3l.2-.2c.1-.1.3-.1.4-.2l.1-.1-.6.3h-.2c0-.1.1-.1.2-.2h.1c1.1-.9 2.7-.7 4-1.1.1-.1.2-.1.3-.2.2-.1.3-.2.5-.4.3-.2.5-.5.6-.8v-.1c-.5.5-1 .9-1.5 1.1-.7.4-1.5.3-2.3.4 0-.1.1-.1.2-.1 0-.1.1-.1.1-.2h.1s0-.1.1-.1h.1c-.1-.1-.3.1-.5 0 .1-.1 0-.2.1-.2h.1c0-.1.1-.1.1-.1.5-.3 1-.6 1.5-.8-.1 0-.2.1-.3 0 .1 0 0-.1.1-.1.4-.1.7-.3 1.1-.5-.1 0-.2.1-.4 0 .1 0 .1-.1.2-.1v-.1h.1-.1c0-.1.1 0 .2-.1h-.1c.1-.1.3-.2.5-.2 0-.1-.1 0-.1-.1h.1-.1c-.1 0 0-.1 0-.1.2-.2.2-.6.3-.8h-.1c-.4.4-.9.5-1.4.7h-.2c-.2.1-.4.1-.6 0-.1-.1-.2-.2-.4-.3-.3-.2-.6-.3-.9-.4-.9-.3-1.8-.4-2.7-.4.4-.2.8-.2 1.2-.4.6-.2 1.1-.4 1.8-.4h-.4c-.5 0-1 .1-1.5.2-.4.1-.7.2-1 .3-.2.1-.3.3-.6.2v-.1c.4-.4.8-.8 1.3-.9.6-.1 1.2 0 1.9.1.5 0 .9.1 1.3.2.2 0 .2.3.4.3.2.1.4 0 .6.1v-.2c.1-.1.3 0 .5 0 .3-.2-.2-.5-.4-.7v-.1c.3.2.5.5.8.7.2.1.6.2.5 0-.2-.4-.5-.7-.8-1.1v-.4c-.1 0-.1 0-.1-.1v-.1c.1-.1.1-.2.1-.3-.1-.2 0-.4-.1-.6s-.1-.4-.1-.6c-.1-.6-.2-1.1-.3-1.7-.1-.7.4-1.2.7-1.8.2-.4.5-.8 1-1.1.1-.4.4-.8.7-1.1.3-.3.7-.6 1.1-.7.5-.2.9-.4.9-.4h-24.1v18.5H489c.7-.5 1.3-.7 2.3-1.2.2-.1 1.2-.6 1.5-.9m-5.3-2.6h-.2c0-.2.3-.2.4-.2.1 0 .2-.1.2-.1.1.1.2.1.2.1-.1.2-.4.1-.6.2m-5.4-.7s0-.1 0 0c.4-.7.8-1.2 1.1-1.9.5-.2.8-.6 1.2-1 .6-.6 1.2-1.2 2-1.5.3-.1.6-.1.9 0-.1.1-.3.1-.4.2h-.1v-.1c-.4.4-.8.6-1.1 1-.2.4-.4.8-.8.9-.1 0 0-.1 0-.1-1.2.7-2 1.5-2.8 2.5m2.9-2.3c0 .1-.1.1-.1.1 0 .1-.1.1-.1.1h-.1c0-.1.1-.2.3-.2 0-.1 0-.1 0 0m1.6 5.2-.1.1s.1 0 0 .1-.2.1-.3.2h-.1l-.1.1h-.2c.1-.1.2-.2.3-.2.1 0 .1-.1.1-.1s0-.1.1-.1c.2-.1.4-.2.3-.1m-.6-.3c-.1.1-.3.2-.4.3-.1.1-.3.1-.5.2h-.1c-.1.1-.2.2-.4.3l-.1.1-.1.1-.1.1-.1.1h-.3l-.1.1-.2.2v-.1l.1-.1s0-.1.1-.1c0-.1.1-.1.1-.1s0-.1.1-.1v-.3c0-.1.1-.1.1-.2-.1 0-.1.1-.1.1s-.1 0-.1-.1l.1-.1.2-.2.1-.1.1-.1c.3-.3.9-.3 1.3-.5.2-.1.4 0 .6 0 .1 0 .2 0 .3.1l-.6.4m.7-2.4s.1 0 .1-.1h-.3v-.1c-.2 0-.4.1-.6.1-.2.1-.5.2-.7.3-.4.1-.7.5-1.1.6V14c0-.1.2-.1.2-.2v-.1c.3-.4.7-.6 1-.9v-.1c.1-.1.3-.2.4-.4 0-.1.2-.2.4-.3 0 0-.1 0-.1-.1-.1 0-.3.1-.4 0 .1-.1.1-.1.2-.1 0 0-.1 0-.1-.1s.1-.1.2-.2c.1 0 .3 0 .4-.1-.2 0-.5.1-.8-.1.2-.5.5-.8.9-1.1h.1c0 .2-.1.3-.3.4.3.1.6.1.8.2 0 .1-.1 0-.1 0 .2.1.4 0 .6.2-.1.1-.2 0-.3 0 1.1.3 2.2.6 3.1 1.3-.8.4-1.6.6-2.4.7h-.3v.1c-.1 0-.2 0-.4.1-.2.2-.4.2-.5.1" style="fill:#282b86"/>
  <path d="M522.6 0h-19.9l.2.1c.2.1.4.2.5.3.3.1.5.3.7.6.1.1.2.3.1.5s-.1.5-.3.5h-.7c-.1 0-.3 0-.4-.1.5.2 1 .5 1.4.9 0 .1.2.1.3.1V3c-.1.1-.1.1-.1.2h.1c.2-.1.1-.4.4-.3.2.1.2.4.1.5-.1.1-.3.2-.4.4V4c.1.1.1.3.2.4.1.2.1.5.2.8.1.5.3 1.1.2 1.6 0 .3-.1.5 0 .8.1.3.2.5.4.7.1.2.3.4.4.6.2.4.6.7.4 1.1-.1.2-.5.2-.7.4-.2.2 0 .5.1.6.2.3-.2.5-.5.6.1.1.2.1.2.1 0 .2.2.3.1.5s-.6.3-.4.6c.1.2.1.5 0 .8-.1.3-.4.5-.6.5-.2.1-.5.1-.7 0-.1 0-.1-.1-.2-.1-.6-.1-1.2-.2-1.8-.2-.2 0-.4.1-.5.1-.1.1-.3.2-.4.4l-.1.1v.1c-.1.1-.2.3-.3.4v.1l-.3.6c-.2.8-.1 1.5 0 1.6 0 0 1.1.4 1.9.7l.8.4h19.5l.1-18.3z" style="fill:#e20011"/>
</svg>
